<svg width="15" height="15" fill="none" xmlns="http://www.w3.org/2000/svg">
    <path d="M9.395 14.988a.852.852 0 0 1 0-1.704h4.753a.852.852 0 0 1 0 1.704H9.395zm-8.683-.352-.666-2.873a1.775 1.775 0 0 1 .333-1.498l5.19-6.707a.26.26 0 0 1 .354-.045L8.105 5.25a.704.704 0 0 0 .539.152.787.787 0 0 0 .68-.868.876.876 0 0 0-.274-.529l-2.12-1.7a.315.315 0 0 1-.053-.437L7.698.802a2.151 2.151 0 0 1 3.154-.214l1.228.976c.48.359.817.875.954 1.458a1.999 1.999 0 0 1-.407 1.7l-7.313 9.457a1.752 1.752 0 0 1-1.36.68l-2.913.035a.333.333 0 0 1-.329-.258z" fill="#fff"/>
</svg>
