<svg width="33" height="24" fill="none" xmlns="http://www.w3.org/2000/svg">
    <path d="M15.5 5H29a3 3 0 0 1 3 3v12a3 3 0 0 1-3 3H10a3 3 0 0 1-3-3v-8" stroke="#2B8B5B" stroke-width="2" stroke-linecap="round"/>
    <path d="M11.477 11.04a.763.763 0 0 1-.54.934.76.76 0 0 1-.93-.533c-.237-.869-.507-1.683-.982-2.357-.432-.597-1.058-1.118-2.03-1.52-.972.402-1.588.923-2.02 1.52-.486.674-.756 1.488-.983 2.357a.771.771 0 0 1-.94.533.765.765 0 0 1-.529-.935c.27-1.01.594-1.977 1.22-2.846.206-.293.455-.575.735-.836C2.74 6.65 1.703 5.51 1.26 4.445a3.327 3.327 0 0 1-.259-1.357c.022-.479.162-.902.41-1.25.443-.63 1.21-.966 2.214-.793.886.153 1.858.685 2.668 1.836.248.348.486.771.702 1.26.216-.489.453-.912.712-1.26.81-1.151 1.772-1.683 2.657-1.836 1.015-.173 1.771.163 2.225.793.248.348.389.772.41 1.25.01.423-.075.89-.259 1.357-.443 1.065-1.48 2.205-3.218 2.912.28.26.518.543.734.836.616.87.94 1.836 1.22 2.846zM6.12 6.28c-.281-1.108-.648-1.933-1.07-2.52-.54-.771-1.144-1.119-1.673-1.205-.368-.065-.616.01-.735.174a.717.717 0 0 0-.119.412c-.01.218.032.456.14.717.39.934 1.48 1.955 3.457 2.422zm2.818-2.52c-.41.587-.788 1.412-1.058 2.52 1.977-.467 3.067-1.488 3.445-2.422.108-.26.162-.5.151-.717a.808.808 0 0 0-.119-.413c-.118-.163-.367-.239-.745-.174-.529.087-1.123.435-1.674 1.206z" fill="#F05D54" stroke="#F05D54" stroke-width=".4"/>
    <path d="M19 15v2M23 15v2M27 15v2" stroke="#2B8B5B" stroke-width="2" stroke-linecap="round" stroke-linejoin="round"/>
</svg>
