<svg width="28" height="28" fill="none" xmlns="http://www.w3.org/2000/svg">
    <rect width="28" height="28" rx="10" fill="#B595DE"/>
    <path d="M14.565 22.905h-1.177a1.747 1.747 0 0 1-1.796-1.733A1.606 1.606 0 0 0 10 19.634a1.336 1.336 0 0 0-.76.194 1.827 1.827 0 0 1-.917.254 1.794 1.794 0 0 1-1.535-.88l-.592-1.013a1.69 1.69 0 0 1-.017-1.733c.164-.282.403-.512.69-.667.229-.126.417-.313.545-.541a1.507 1.507 0 0 0 .16-1.154 1.552 1.552 0 0 0-.726-.96 1.728 1.728 0 0 1-.64-2.392l.58-.998a1.795 1.795 0 0 1 2.436-.642 1.656 1.656 0 0 0 2.167-.583 1.3 1.3 0 0 0 .2-.744c-.016-.317.069-.63.242-.896A1.86 1.86 0 0 1 13.362 6h1.218a1.82 1.82 0 0 1 1.538.88c.17.266.251.58.233.895-.01.262.059.522.198.744a1.66 1.66 0 0 0 2.174.583 1.784 1.784 0 0 1 2.428.642l.578.998a1.715 1.715 0 0 1-.64 2.393 1.546 1.546 0 0 0-.752 1.554c.03.198.097.388.201.559.122.229.308.417.536.54.285.161.526.39.7.668a1.718 1.718 0 0 1-.017 1.733l-.605 1.014a1.777 1.777 0 0 1-2.445.625 1.37 1.37 0 0 0-.76-.194 1.606 1.606 0 0 0-1.599 1.538 1.741 1.741 0 0 1-1.783 1.733zm-.581-10.836a2.425 2.425 0 0 0-2.451 2.392 2.335 2.335 0 0 0 .717 1.69 2.477 2.477 0 0 0 1.736.695 2.385 2.385 0 0 0 1.72-4.079 2.432 2.432 0 0 0-1.722-.698z" fill="#fff"/>
</svg>
