<svg width="28" height="28" fill="none" xmlns="http://www.w3.org/2000/svg">
    <rect width="28" height="28" rx="10" fill="#A3A5EA"/>
    <path d="M14 5a9 9 0 1 0 9 9 9.026 9.026 0 0 0-9-9zm6.21 5.4H17.6a14.226 14.226 0 0 0-1.26-3.24 7.244 7.244 0 0 1 3.87 3.24zM14 6.8a12.084 12.084 0 0 1 1.71 3.6h-3.42c.385-1.28.962-2.493 1.71-3.6zm-6.93 9A5.8 5.8 0 0 1 6.8 14a5.8 5.8 0 0 1 .27-1.8h3.06a12.072 12.072 0 0 0-.09 1.8c0 .63.09 1.17.09 1.8H7.07zm.72 1.8h2.61c.286 1.127.71 2.216 1.26 3.24a7.244 7.244 0 0 1-3.87-3.24zm2.61-7.2H7.79a7.585 7.585 0 0 1 3.87-3.24 14.226 14.226 0 0 0-1.26 3.24zM14 21.2a12.084 12.084 0 0 1-1.71-3.6h3.42A13.233 13.233 0 0 1 14 21.2zm2.07-5.4h-4.14a12.199 12.199 0 0 1-.18-1.8c.015-.604.075-1.205.18-1.8h4.23c.105.595.165 1.196.18 1.8a12.427 12.427 0 0 1-.27 1.8zm.27 5.04c.566-1.017.99-2.108 1.26-3.24h2.61a7.244 7.244 0 0 1-3.87 3.24zm1.62-5.04c.075-.597.105-1.199.09-1.8 0-.63-.09-1.17-.09-1.8h3.06c.184.582.275 1.19.27 1.8a5.799 5.799 0 0 1-.27 1.8h-3.06z" fill="#fff"/>
</svg>
