<svg width="25" height="35" fill="none" xmlns="http://www.w3.org/2000/svg">
    <path d="M7.682 26.622v3.65c0 1.525 1.324 2.765 2.95 2.765h3.935c1.627 0 2.951-1.24 2.951-2.765v-3.65" stroke="#2B8B5B" stroke-width="2"/>
    <path d="M20.337 21.722c-1.474 1.362-2.485 3.12-2.749 5.043H7.615c-.265-1.924-1.281-3.682-2.755-5.043a11.415 11.415 0 0 1-3.662-8.358c0-6.286 5.115-11.401 11.4-11.401C18.886 1.963 24 7.078 24 13.363c0 3.161-1.335 6.21-3.663 8.359z" stroke="#2B8B5B" stroke-width="2"/>
    <path d="m9.737 17.744 1.104-3.31 3.493 2.328a1.2 1.2 0 0 0 1.804-.619l1.6-4.8a1.2 1.2 0 1 0-2.277-.76l-1.103 3.31-3.493-2.328a1.2 1.2 0 0 0-1.805.62l-1.6 4.8a1.2 1.2 0 0 0 2.277.759z" fill="#F05D54"/>
</svg>
