<svg width="28" height="28" fill="none" xmlns="http://www.w3.org/2000/svg">
    <rect width="28" height="28" rx="10" fill="#FB8290"/>
    <path d="M17.015 21.334h-6.91a4.147 4.147 0 0 1-3.3-1.115 4.4 4.4 0 0 1-.67-3.622l.65-5.164a3.4 3.4 0 0 1 .994-2.01 2.28 2.28 0 0 1 1.547-.589h.064a.566.566 0 0 1 0-.188 4.167 4.167 0 0 1 8.326 0h-.022a.433.433 0 0 1-.037.188h.13c.567.002 1.111.22 1.523.609.54.54.9 1.236 1.025 1.99l.64 5.162a4.277 4.277 0 0 1-.754 3.525 4.1 4.1 0 0 1-3.206 1.214zm-1.061-9.726a.758.758 0 1 0 .736.757.748.748 0 0 0-.736-.757zm-4.824 0a.758.758 0 1 0 .736.757.748.748 0 0 0-.736-.757zm2.39-5.856a2.9 2.9 0 0 0-2.9 2.893.53.53 0 0 1 0 .188h5.843a.542.542 0 0 1-.036-.188 2.9 2.9 0 0 0-2.906-2.893z" fill="#fff"/>
</svg>
