<svg width="28" height="28" fill="none" xmlns="http://www.w3.org/2000/svg">
    <rect width="28" height="28" rx="10" fill="#99DD63"/>
    <path d="M17.014 22.686H10.03a3.66 3.66 0 0 1-4.008-4.034v-8.608a4.091 4.091 0 0 1 1.054-2.966 4.053 4.053 0 0 1 2.954-1.06h6.985a3.656 3.656 0 0 1 4.007 4.026v8.608a4.076 4.076 0 0 1-1.038 2.986 4.015 4.015 0 0 1-2.969 1.048zm-6.827-5.22a.65.65 0 0 0-.557.312.655.655 0 0 0 .625 1h6.534a.658.658 0 0 0 0-1.308h-6.535a.672.672 0 0 0-.068-.004h.001zm.068-3.8a.65.65 0 0 0 0 1.3h6.534a.65.65 0 1 0 0-1.3h-6.534zm0-3.774V9.9a.65.65 0 1 0 0 1.3h2.491a.654.654 0 0 0 0-1.308h-2.49z" fill="#fff"/>
</svg>
