<svg width="28" height="28" fill="none" xmlns="http://www.w3.org/2000/svg">
    <rect width="28" height="28" rx="10" fill="#9AB4C1"/>
    <path d="M10.695 22.363A3.667 3.667 0 0 1 7 18.73V9.64A3.676 3.676 0 0 1 10.704 6h4.062a3.665 3.665 0 0 1 3.688 3.633v3.919h-4.99a.63.63 0 0 0 0 1.26h4.99v3.91a3.676 3.676 0 0 1-3.705 3.64h-4.054zm9.837-5.358a.632.632 0 0 1 0-.892l1.309-1.3h-3.387v-1.261h3.387l-1.31-1.301a.632.632 0 0 1 0-.892.626.626 0 0 1 .893-.008l2.389 2.38a.627.627 0 0 1 0 .892l-2.39 2.382a.623.623 0 0 1-.891 0z" fill="#fff"/>
</svg>
