<svg width="28" height="28" fill="none" xmlns="http://www.w3.org/2000/svg">
    <rect width="28" height="28" rx="10" fill="#EDCF30"/>
    <path d="M16.403 21.005a.853.853 0 0 1 0-1.705h4.759a.853.853 0 0 1 0 1.705h-4.76zm-8.694-.353-.663-2.876a1.776 1.776 0 0 1 .336-1.5l5.19-6.714a.261.261 0 0 1 .354-.045l2.185 1.738a.7.7 0 0 0 .539.152.788.788 0 0 0 .68-.869.878.878 0 0 0-.273-.533l-2.122-1.7a.315.315 0 0 1-.053-.438l.82-1.062a2.153 2.153 0 0 1 3.159-.217l1.229.977c.48.36.818.877.955 1.46a2 2 0 0 1-.406 1.7l-7.322 9.47a1.753 1.753 0 0 1-1.362.681l-2.918.035a.333.333 0 0 1-.328-.259z" fill="#fff"/>
</svg>
