<svg width="28" height="28" fill="none" xmlns="http://www.w3.org/2000/svg">
    <rect width="28" height="28" rx="10" fill="#6CCED5"/>
    <path d="M14.087 22.666a1.13 1.13 0 0 1-.612-.206 17.925 17.925 0 0 1-4.617-4.284A8.654 8.654 0 0 1 7 12.931a6.807 6.807 0 0 1 2.086-4.9 7.109 7.109 0 0 1 4.992-2.03 7.02 7.02 0 0 1 7.089 6.93 8.658 8.658 0 0 1-1.859 5.245 18.266 18.266 0 0 1-4.618 4.284 1.1 1.1 0 0 1-.603.206zm-.009-11.852a2.336 2.336 0 0 0-2.333 2.333 2.26 2.26 0 0 0 .685 1.63 2.352 2.352 0 0 0 3.992-1.63 2.354 2.354 0 0 0-2.344-2.333z" fill="#fff"/>
</svg>
