<svg width="28" height="28" fill="none" xmlns="http://www.w3.org/2000/svg">
    <rect width="28" height="28" rx="10" fill="#FBA34D"/>
    <path d="m14.027 22.198-.208-.128a30.527 30.527 0 0 1-5.096-3.968 10.393 10.393 0 0 1-2.407-3.839 6.195 6.195 0 0 1 .114-4.22 4.867 4.867 0 0 1 3.03-2.828 3.6 3.6 0 0 1 .711-.167h.096A4.56 4.56 0 0 1 10.94 7h.088c.499.015.992.104 1.465.264h.047c.026.012.05.028.072.048a2.7 2.7 0 0 1 .504.209l.304.135c.079.046.155.096.228.152.045.034.085.062.116.08l.032.02c.072.039.141.083.208.132A4.979 4.979 0 0 1 17.047 7h.035a4.66 4.66 0 0 1 1.488.233 4.815 4.815 0 0 1 3.004 2.813 6.332 6.332 0 0 1 .124 4.217 10.222 10.222 0 0 1-2.407 3.848 30.876 30.876 0 0 1-5.065 3.967l-.2.12zm3.925-12.704a.647.647 0 0 0-.606.435.656.656 0 0 0 .4.823 1.34 1.34 0 0 1 .856 1.255v.024a.688.688 0 0 0 .152.496c.115.135.28.218.456.232a.658.658 0 0 0 .632-.607v-.096a2.64 2.64 0 0 0-1.688-2.528.624.624 0 0 0-.202-.034z" fill="#fff"/>
</svg>
