<svg width="39" height="31" fill="none" xmlns="http://www.w3.org/2000/svg">
    <path d="M20.575 17.102c-.053-.38-.133-.759-.2-1.139-.041-.229-.08-.46-.119-.69-.001-.012-.007-.022-.01-.034-.113-.299-.225-.6-.341-.899-.087-.222-.167-.446-.27-.661a8.177 8.177 0 0 0-.415-.785 9.697 9.697 0 0 0-.65-.956 7.457 7.457 0 0 0-.764-.814c-.31-.284-.643-.547-.977-.804-.136-.105-.302-.174-.46-.25a21.837 21.837 0 0 0-.745-.36c-.227-.1-.455-.204-.69-.279a5.09 5.09 0 0 0-.697-.153c-.46-.074-.92-.174-1.384-.196-.787-.039-1.578-.046-2.36.097-.271.05-.54.106-.804.18-.275.078-.544.177-.814.27-.22.075-.448.135-.653.237-.25.126-.48.283-.713.44-.266.18-.553.343-.78.563-.39.38-.836.71-1.135 1.174-.158.243-.327.483-.503.714-.073.093-.158.221-.343.102V0H0v.25l.003 29.268-.003.003v.665s2.811.429 4.059-.86c.874-.902.962-2.114.938-2.758l.18.238c.184.228.365.432.57.641.315.321.61.67 1.019.898.083.047.139.14.223.185.302.167.61.327.92.479.216.107.435.219.666.285.352.1.712.173 1.073.24.299.056.604.111.908.119.746.016 1.495.05 2.234-.102.436-.09.885-.14 1.311-.262a9.222 9.222 0 0 0 1.22-.476c.318-.143.621-.313.917-.494.254-.155.499-.327.727-.516.273-.226.533-.471.784-.722.24-.241.473-.49.684-.756.147-.186.254-.4.375-.605.187-.316.373-.636.557-.956.05-.086.094-.175.136-.264.1-.215.209-.425.29-.647.104-.282.19-.569.278-.857.103-.337.209-.674.298-1.014.053-.204.08-.415.11-.623.042-.287.101-.574.107-.862.018-.905.018-1.81.02-2.715-.002-.226.003-.455-.029-.68zm-4.847 3.076c-.012.328-.115.652-.178.98-.038.196-.07.398-.126.59-.093.319-.198.634-.31.946-.076.207-.17.41-.265.612a5.352 5.352 0 0 1-.59.937c-.13.158-.277.3-.424.444-.177.173-.344.362-.547.505-.234.166-.498.293-.753.43-.167.09-.334.187-.512.244-.27.086-.56.121-.828.21-.478.158-.967.085-1.45.101-.446.015-.872-.08-1.303-.193a4.68 4.68 0 0 1-1.154-.474c-.459-.264-.892-.566-1.225-.98-.213-.268-.448-.524-.622-.814-.162-.271-.258-.578-.372-.874a5.735 5.735 0 0 1-.21-.644c-.105-.412-.126-.83-.116-1.254.01-.42.002-.84.002-1.261 0-.444-.017-.89.004-1.331.021-.443.053-.888.13-1.324.054-.308.181-.606.295-.901a9.45 9.45 0 0 1 .38-.879c.082-.163.215-.302.316-.457.302-.46.722-.816 1.134-1.175.142-.124.336-.194.502-.293.098-.059.183-.142.285-.189.343-.154.695-.28 1.062-.382.768-.215 1.544-.212 2.32-.163.39.023.777.159 1.162.258.175.045.35.112.508.197.444.235.852.51 1.216.863.346.334.645.699.87 1.11.219.4.426.81.509 1.268.047.258.15.508.2.766.191 1.035.126 2.083.09 3.127z" fill="#F00000"/>
    <path d="M22.277 13.952v3.915h8.787L21.98 30.333h4.542l12.176-16.381h-16.42zM35.223 20.958 39 16.095v14.238h-3.777v-9.375z" fill="#007B3D"/>
</svg>
