<svg width="27" height="27" fill="none" xmlns="http://www.w3.org/2000/svg">
    <path d="m1 1 2.837.491 1.314 15.65a2.456 2.456 0 0 0 2.455 2.255h14.881a2.455 2.455 0 0 0 2.435-2.109l1.294-8.946a1.83 1.83 0 0 0-1.548-2.072c-.087-.012-20.375-.019-20.375-.019M15.516 11.292h5" stroke="#3D454D" stroke-width="1.5" stroke-miterlimit="10" stroke-linecap="round" stroke-linejoin="round"/>
    <path d="M7.007 24.124a.744.744 0 1 1 .003 1.488.744.744 0 0 1-.003-1.488zM22.396 24.124a.744.744 0 1 1 .002 1.488.744.744 0 0 1-.002-1.488z" fill="#3D454D" stroke="#3D454D" stroke-width="1.5" stroke-miterlimit="10" stroke-linecap="round" stroke-linejoin="round"/>
</svg>
