<svg width="19" height="21" fill="none" xmlns="http://www.w3.org/2000/svg">
    <path d="M13.16 20.014H4.87c-1.88 0-3.176-.438-3.959-1.338-.819-.942-1.082-2.362-.805-4.348l.778-6.194a4.081 4.081 0 0 1 1.193-2.412 2.736 2.736 0 0 1 1.856-.708h.078a.68.68 0 0 1 0-.226 5 5 0 0 1 9.991 0h-.026a.517.517 0 0 1-.045.226h.157c.68.002 1.334.263 1.827.73a4.388 4.388 0 0 1 1.23 2.39l.77 6.195a5.132 5.132 0 0 1-.907 4.23 4.914 4.914 0 0 1-3.848 1.455zm-1.274-11.67a.91.91 0 1 0 .884.909.9.9 0 0 0-.884-.91zm-5.785 0a.91.91 0 1 0 .884.909.9.9 0 0 0-.884-.91zm2.866-7.03a3.482 3.482 0 0 0-3.484 3.474.633.633 0 0 1 0 .226h7.011a.652.652 0 0 1-.043-.226 3.482 3.482 0 0 0-3.484-3.474z" fill="#fff"/>
</svg>
