<svg width="31" height="31" fill="none" xmlns="http://www.w3.org/2000/svg">
    <path d="M12.438 3.038c1.538-2.028 4.586-2.028 6.124 0a3.842 3.842 0 0 0 3.585 1.485c2.521-.347 4.677 1.809 4.33 4.33a3.843 3.843 0 0 0 1.485 3.585c2.028 1.538 2.028 4.586 0 6.124a3.843 3.843 0 0 0-1.485 3.585c.347 2.521-1.809 4.677-4.33 4.33a3.843 3.843 0 0 0-3.585 1.485c-1.538 2.028-4.586 2.028-6.124 0a3.843 3.843 0 0 0-3.585-1.485c-2.521.347-4.677-1.809-4.33-4.33a3.842 3.842 0 0 0-1.485-3.585c-2.028-1.538-2.028-4.586 0-6.124a3.842 3.842 0 0 0 1.485-3.585c-.347-2.521 1.809-4.677 4.33-4.33a3.842 3.842 0 0 0 3.585-1.485z" stroke="#2B8B5B" stroke-width="2"/>
</svg>
