<svg width="27" height="23" fill="none" xmlns="http://www.w3.org/2000/svg">
    <path d="M21.607 21.735a4.629 4.629 0 0 0 4.628-4.625v-2.683a3.056 3.056 0 0 1-3.054-3.055 3.056 3.056 0 0 1 3.054-3.054v-2.68A4.626 4.626 0 0 0 21.614 1H5.63A4.63 4.63 0 0 0 1 5.627v2.806a2.95 2.95 0 0 1 3.051 2.847v.09a3.051 3.051 0 0 1-3.043 3.054H1v2.683a4.627 4.627 0 0 0 4.626 4.628h15.981z" stroke="#3D454D" stroke-width="1.5" stroke-miterlimit="10" stroke-linecap="round" stroke-linejoin="round"/>
    <path d="m14.048 7.056.916 1.72a.583.583 0 0 0 .189.21c.08.054.174.09.273.103l2.045.276c.114.015.221.059.31.128a.57.57 0 0 1 .189.26c.035.102.04.21.012.314a.563.563 0 0 1-.169.273l-1.485 1.338a.571.571 0 0 0-.157.232.537.537 0 0 0-.022.274l.35 1.89a.532.532 0 0 1-.037.31.58.58 0 0 1-.208.248.655.655 0 0 1-.647.044l-1.82-.891a.65.65 0 0 0-.574 0l-1.827.892a.657.657 0 0 1-.646-.045.58.58 0 0 1-.208-.247.535.535 0 0 1-.038-.31l.35-1.89a.532.532 0 0 0-.022-.274.567.567 0 0 0-.157-.232L9.187 10.34a.563.563 0 0 1-.169-.272.532.532 0 0 1 .012-.314.57.57 0 0 1 .189-.26.638.638 0 0 1 .308-.129l2.046-.276a.645.645 0 0 0 .273-.103.587.587 0 0 0 .19-.21l.911-1.721a.59.59 0 0 1 .228-.23.652.652 0 0 1 .646 0 .591.591 0 0 1 .227.23v0z" stroke="#3D454D" stroke-width="1.5" stroke-miterlimit="10" stroke-linecap="round" stroke-linejoin="round"/>
</svg>
