<svg xmlns="http://www.w3.org/2000/svg" width="36" height="36" viewBox="0 0 36 36">
    <g transform="translate(-330.558 -214.558)">
        <rect width="36" height="36" fill="#f2f2f2" rx="6" transform="translate(330.558 214.558)"/>
        <g>
            <g>
                <path fill="#a2a2a2" d="M5.127 19.944A2.914 2.914 0 0 1 2.2 17.12c-.313-2.844-.835-9.569-.845-9.637a.791.791 0 0 1 .191-.558.707.707 0 0 1 .522-.234h13.858a.724.724 0 0 1 .522.234.744.744 0 0 1 .181.558c0 .068-.532 6.8-.836 9.637a2.915 2.915 0 0 1-2.993 2.824c-1.294.029-2.558.039-3.8.039-1.325 0-2.618-.01-3.873-.039zM.713 5.087A.729.729 0 0 1 0 4.353v-.379a.723.723 0 0 1 .713-.734h2.914a1.281 1.281 0 0 0 1.24-1.013l.152-.682A1.987 1.987 0 0 1 6.93 0h4.126a1.986 1.986 0 0 1 1.9 1.5l.163.729a1.279 1.279 0 0 0 1.24 1.015h2.914a.723.723 0 0 1 .712.734v.379a.729.729 0 0 1-.712.734z" transform="translate(337.558 221.558) translate(2.997 1.998) translate(0 0)"/>
            </g>
        </g>
    </g>
</svg>
