<svg width="130" height="105" fill="none" xmlns="http://www.w3.org/2000/svg">
    <path d="M68.585 58.83c-.176-1.311-.443-2.612-.67-3.917-.136-.789-.262-1.582-.392-2.375-.005-.04-.026-.076-.036-.116-.377-1.03-.75-2.064-1.138-3.093-.287-.763-.553-1.537-.896-2.275-.423-.919-.866-1.833-1.385-2.701-.674-1.125-1.364-2.255-2.165-3.29a25.313 25.313 0 0 0-2.548-2.796c-1.032-.98-2.145-1.883-3.257-2.767-.454-.361-1.007-.597-1.531-.863A71.445 71.445 0 0 0 52.08 33.4c-.756-.346-1.516-.703-2.302-.959-.75-.24-1.54-.396-2.32-.527-1.532-.256-3.067-.597-4.613-.673-2.623-.135-5.262-.16-7.87.332-.901.17-1.798.366-2.679.622-.916.267-1.813.608-2.714.93-.73.255-1.49.461-2.175.813-.831.432-1.601.974-2.377 1.511-.886.618-1.843 1.18-2.598 1.938-1.3 1.306-2.79 2.446-3.787 4.038a37.108 37.108 0 0 1-1.676 2.455c-.242.321-.524.763-1.143.351V0H0v.859C.005 34.42.005 67.978.01 101.54l-.01.01v2.285s9.37 1.476 13.53-2.958c2.915-3.103 3.207-7.27 3.127-9.485l.599.819a30.599 30.599 0 0 0 1.898 2.204c1.052 1.105 2.034 2.305 3.399 3.088.277.16.463.482.745.638a69.026 69.026 0 0 0 3.067 1.647c.72.366 1.45.753 2.22.979 1.173.346 2.372.597 3.575.828.997.191 2.014.382 3.026.407 2.488.055 4.985.171 7.447-.351 1.456-.307 2.951-.477 4.371-.899 1.395-.417 2.744-1.02 4.068-1.637 1.058-.492 2.07-1.08 3.057-1.702a20.925 20.925 0 0 0 2.422-1.773 38.084 38.084 0 0 0 2.613-2.486c.8-.828 1.576-1.687 2.281-2.6.488-.638.846-1.376 1.249-2.08.624-1.089 1.243-2.189 1.858-3.288.166-.297.312-.603.453-.91.332-.737.695-1.46.967-2.224.347-.969.634-1.958.926-2.947.343-1.16.695-2.32.992-3.49.176-.703.267-1.426.368-2.144.14-.984.337-1.973.357-2.962.06-3.114.06-6.227.066-9.34-.005-.778.01-1.567-.096-2.34zM52.427 69.408c-.04 1.13-.383 2.244-.594 3.37-.126.677-.232 1.37-.418 2.033a56.834 56.834 0 0 1-1.037 3.254c-.252.713-.564 1.41-.882 2.103-.236.508-.498 1.01-.79 1.487-.368.592-.74 1.19-1.173 1.737-.433.543-.927 1.035-1.415 1.527-.59.597-1.148 1.245-1.823 1.737-.78.572-1.662 1.01-2.513 1.481-.553.307-1.112.643-1.706.839-.902.296-1.864.417-2.76.723-1.591.542-3.222.291-4.834.346-1.485.05-2.905-.276-4.34-.662a15.343 15.343 0 0 1-3.847-1.632c-1.53-.91-2.976-1.949-4.084-3.375-.71-.918-1.495-1.797-2.074-2.796-.539-.934-.861-1.989-1.239-3.008a20.175 20.175 0 0 1-.7-2.215c-.352-1.416-.423-2.857-.387-4.313.035-1.446.005-2.892.005-4.338 0-1.527-.056-3.058.015-4.58.07-1.521.176-3.053.433-4.554.181-1.06.604-2.084.982-3.098.377-1.024.79-2.039 1.269-3.023.271-.562.715-1.04 1.052-1.572 1.007-1.586 2.407-2.806 3.781-4.042.474-.426 1.118-.668 1.672-1.009.327-.2.61-.487.952-.648a24.103 24.103 0 0 1 3.54-1.315c2.557-.738 5.146-.728 7.729-.563 1.304.08 2.593.548 3.877.89a7.586 7.586 0 0 1 1.692.677c1.48.809 2.84 1.758 4.053 2.968 1.153 1.15 2.15 2.405 2.9 3.816.73 1.376 1.42 2.792 1.697 4.363.156.889.499 1.748.665 2.636.64 3.56.423 7.166.302 10.756zM74.255 47.993V61.46h29.29l-30.282 42.882h15.14l40.59-56.349H74.255zM117.412 72.095 130 55.365v48.977h-12.588V72.095z" fill="#fff"/>
</svg>
